<svg width="64" height="64" viewBox="0 0 64 64" version="1.1" xmlns="http://www.w3.org/2000/svg" xmlns:xlink="http://www.w3.org/1999/xlink">
<title>logoblack</title>
<desc>Created using Figma</desc>
<g id="Canvas" transform="translate(-93 0)">
<g id="logoblack">
<g id="Ellipse">
<use xlink:href="#path0_fill" transform="translate(93 0)" fill="#231F20"/>
</g>
<g id="Group">
<g id="e">
<use xlink:href="#path1_fill" transform="translate(106.5 20)" fill="#F3F6FA"/>
</g>
<g id="fix">
<use xlink:href="#path2_fill" transform="translate(125 28)" fill="#231F20"/>
</g>
<g id="s">
<use xlink:href="#path3_fill" transform="translate(120.5 4)" fill="#F3F6FA"/>
</g>
</g>
</g>
</g>
<defs>
<path id="path0_fill" d="M 64 32C 64 49.6731 49.6731 64 32 64C 14.3269 64 0 49.6731 0 32C 0 14.3269 14.3269 0 32 0C 49.6731 0 64 14.3269 64 32Z"/>
<path id="path1_fill" d="M 21.456 2.04C 21.36 -0.0720005 20.672 -1.816 19.392 -3.192C 18.144 -4.6 16.352 -5.304 14.016 -5.304C 12.928 -5.304 11.92 -5.096 10.992 -4.68C 10.064 -4.296 9.248 -3.752 8.544 -3.048C 7.84 -2.376 7.28 -1.592 6.864 -0.696C 6.448 0.168001 6.208 1.08 6.144 2.04L 21.456 2.04ZM 24.768 3.096C 24.768 3.32 24.768 3.56 24.768 3.816C 24.768 4.072 24.752 4.344 24.72 4.632L 6.096 4.632C 6.128 5.752 6.352 6.808 6.768 7.8C 7.184 8.792 7.76 9.656 8.496 10.392C 9.232 11.128 10.096 11.72 11.088 12.168C 12.08 12.584 13.152 12.792 14.304 12.792C 16 12.792 17.456 12.408 18.672 11.64C 19.92 10.84 20.864 9.928 21.504 8.904L 23.952 10.824C 22.608 12.52 21.12 13.736 19.488 14.472C 17.888 15.208 16.16 15.576 14.304 15.576C 12.64 15.576 11.088 15.288 9.648 14.712C 8.24 14.104 7.024 13.272 6 12.216C 4.976 11.16 4.16 9.912 3.552 8.472C 2.976 7.032 2.688 5.464 2.688 3.768C 2.688 2.072 2.976 0.504001 3.552 -0.935999C 4.128 -2.376 4.928 -3.624 5.952 -4.68C 6.976 -5.736 8.176 -6.552 9.552 -7.128C 10.928 -7.736 12.416 -8.04 14.016 -8.04C 15.776 -8.04 17.328 -7.736 18.672 -7.128C 20.016 -6.552 21.136 -5.752 22.032 -4.728C 22.928 -3.736 23.6 -2.568 24.048 -1.224C 24.528 0.12 24.768 1.56 24.768 3.096Z"/>
<path id="path2_fill" d="M 0 0L 6 0L 6 7L 0 7L 0 0Z"/>
<path id="path3_fill" d="M 16.272 30.864C 15.792 29.936 15.056 29.184 14.064 28.608C 13.104 28 12 27.696 10.752 27.696C 10.176 27.696 9.6 27.76 9.024 27.888C 8.448 28.016 7.936 28.224 7.488 28.512C 7.04 28.8 6.672 29.168 6.384 29.616C 6.128 30.064 6 30.592 6 31.2C 6 32.256 6.432 33.072 7.296 33.648C 8.16 34.192 9.52 34.656 11.376 35.04C 14.032 35.584 15.984 36.384 17.232 37.44C 18.512 38.464 19.152 39.856 19.152 41.616C 19.152 42.896 18.896 43.984 18.384 44.88C 17.904 45.744 17.264 46.464 16.464 47.04C 15.664 47.584 14.752 47.968 13.728 48.192C 12.736 48.448 11.728 48.576 10.704 48.576C 9.008 48.576 7.36 48.224 5.76 47.52C 4.16 46.816 2.848 45.712 1.824 44.208L 4.416 42.288C 4.992 43.28 5.84 44.112 6.96 44.784C 8.08 45.456 9.312 45.792 10.656 45.792C 11.36 45.792 12.032 45.728 12.672 45.6C 13.312 45.472 13.872 45.248 14.352 44.928C 14.832 44.608 15.216 44.208 15.504 43.728C 15.792 43.216 15.936 42.592 15.936 41.856C 15.936 40.672 15.36 39.792 14.208 39.216C 13.088 38.608 11.456 38.048 9.312 37.536C 8.64 37.376 7.92 37.184 7.152 36.96C 6.416 36.704 5.728 36.352 5.088 35.904C 4.448 35.424 3.92 34.832 3.504 34.128C 3.088 33.424 2.88 32.544 2.88 31.488C 2.88 30.336 3.104 29.36 3.552 28.56C 4 27.728 4.592 27.056 5.328 26.544C 6.096 26 6.96 25.6 7.92 25.344C 8.88 25.088 9.872 24.96 10.896 24.96C 12.464 24.96 13.984 25.312 15.456 26.016C 16.928 26.72 18.032 27.712 18.768 28.992L 16.272 30.864Z"/>
</defs>
</svg>
